<?xml version="1.0" encoding="UTF-8" standalone="no"?>
<!DOCTYPE svg PUBLIC "-//W3C//DTD SVG 1.1//EN"
 "http://www.w3.org/Graphics/SVG/1.1/DTD/svg11.dtd">
<!-- Generated by graphviz version 2.44.1 (20200629.0846)
 -->
<!-- Title: G Pages: 1 -->
<svg width="581pt" height="502pt"
 viewBox="0.00 0.00 580.73 501.71" xmlns="http://www.w3.org/2000/svg" xmlns:xlink="http://www.w3.org/1999/xlink">
<g id="graph0" class="graph" transform="scale(1 1) rotate(0) translate(4 497.71)">
<title>G</title><style>.edge>path:hover{stroke-width:8}</style>
<polygon fill="white" stroke="transparent" points="-4,4 -4,-497.71 576.73,-497.71 576.73,4 -4,4"/>
<!-- PPA_Discretizers -->
<g id="node1" class="node">
<title>PPA_Discretizers</title><style>.edge>path:hover{stroke-width:8}</style>
<ellipse fill="#b62020" stroke="black" cx="361.28" cy="-171.64" rx="48.58" ry="21.43"/>
<text text-anchor="middle" x="361.28" y="-174.64" font-family="Helvetica,sans-Serif" font-size="10.00" fill="#ffffff">PPA.</text>
<text text-anchor="middle" x="361.28" y="-163.64" font-family="Helvetica,sans-Serif" font-size="10.00" fill="#ffffff">Discretizers</text>
</g>
<!-- PPA_PPA_Learn -->
<g id="node4" class="node">
<title>PPA_PPA_Learn</title><style>.edge>path:hover{stroke-width:8}</style>
<ellipse fill="#8f3d3d" stroke="black" cx="249.28" cy="-18" rx="50.75" ry="18"/>
<text text-anchor="middle" x="249.28" y="-15.5" font-family="Helvetica,sans-Serif" font-size="10.00" fill="#ffffff">PPA.PPA_Learn</text>
</g>
<!-- PPA_Discretizers&#45;&gt;PPA_PPA_Learn -->
<g id="edge1" class="edge">
<title>PPA_Discretizers&#45;&gt;PPA_PPA_Learn</title><style>.edge>path:hover{stroke-width:8}</style>
<path fill="none" stroke="black" d="M355.66,-150.4C351.82,-135.11 347.25,-113.52 346.28,-94.21"/>
</g>
<!-- PPA_PPA_Test -->
<g id="node5" class="node">
<title>PPA_PPA_Test</title><style>.edge>path:hover{stroke-width:8}</style>
<ellipse fill="#8f3d3d" stroke="black" cx="124.28" cy="-18" rx="47.86" ry="18"/>
<text text-anchor="middle" x="124.28" y="-15.5" font-family="Helvetica,sans-Serif" font-size="10.00" fill="#ffffff">PPA.PPA_Test</text>
</g>
<!-- PPA_Discretizers&#45;&gt;PPA_PPA_Test -->
<g id="edge2" class="edge">
<title>PPA_Discretizers&#45;&gt;PPA_PPA_Test</title><style>.edge>path:hover{stroke-width:8}</style>
<path fill="none" stroke="black" d="M324.51,-157.67C317.47,-155.23 310.16,-152.73 303.28,-150.43 253.7,-133.82 233.38,-145.43 191.28,-114.43 178.14,-104.75 154.98,-69.42 139.63,-44.58"/>
<polygon fill="#b62020" stroke="black" points="142.57,-42.68 134.36,-35.97 136.6,-46.33 142.57,-42.68"/>
</g>
<!-- PPA_StateActionQN -->
<g id="node7" class="node">
<title>PPA_StateActionQN</title><style>.edge>path:hover{stroke-width:8}</style>
<ellipse fill="#c43131" stroke="black" cx="259.28" cy="-93.21" rx="58.88" ry="21.43"/>
<text text-anchor="middle" x="259.28" y="-96.21" font-family="Helvetica,sans-Serif" font-size="10.00" fill="#ffffff">PPA.</text>
<text text-anchor="middle" x="259.28" y="-85.21" font-family="Helvetica,sans-Serif" font-size="10.00" fill="#ffffff">StateActionQN</text>
</g>
<!-- PPA_Discretizers&#45;&gt;PPA_StateActionQN -->
<g id="edge3" class="edge">
<title>PPA_Discretizers&#45;&gt;PPA_StateActionQN</title><style>.edge>path:hover{stroke-width:8}</style>
<path fill="none" stroke="black" d="M337.62,-152.91C324.14,-142.81 307.04,-130 292.26,-118.93"/>
<polygon fill="#b62020" stroke="black" points="293.98,-115.84 283.87,-112.64 289.78,-121.44 293.98,-115.84"/>
</g>
<!-- PPA_LocalState -->
<g id="node2" class="node">
<title>PPA_LocalState</title><style>.edge>path:hover{stroke-width:8}</style>
<ellipse fill="#a83838" stroke="black" cx="244.28" cy="-171.64" rx="50.07" ry="18"/>
<text text-anchor="middle" x="244.28" y="-169.14" font-family="Helvetica,sans-Serif" font-size="10.00" fill="#ffffff">PPA.LocalState</text>
</g>
<!-- PPA_MCTS -->
<g id="node3" class="node">
<title>PPA_MCTS</title><style>.edge>path:hover{stroke-width:8}</style>
<ellipse fill="#bc2f2f" stroke="black" cx="105.28" cy="-93.21" rx="39.38" ry="18"/>
<text text-anchor="middle" x="105.28" y="-90.71" font-family="Helvetica,sans-Serif" font-size="10.00" fill="#ffffff">PPA.MCTS</text>
</g>
<!-- PPA_LocalState&#45;&gt;PPA_MCTS -->
<g id="edge4" class="edge">
<title>PPA_LocalState&#45;&gt;PPA_MCTS</title><style>.edge>path:hover{stroke-width:8}</style>
<path fill="none" stroke="black" d="M218.13,-156.26C195.54,-143.84 162.77,-125.82 138.36,-112.4"/>
<polygon fill="#a83838" stroke="black" points="139.9,-109.25 129.45,-107.5 136.52,-115.39 139.9,-109.25"/>
</g>
<!-- PPA_MCTS&#45;&gt;PPA_PPA_Learn -->
<g id="edge5" class="edge">
<title>PPA_MCTS&#45;&gt;PPA_PPA_Learn</title><style>.edge>path:hover{stroke-width:8}</style>
<path fill="none" stroke="black" d="M130.69,-79.29C153.34,-67.78 186.78,-50.78 212.38,-37.76"/>
<polygon fill="#bc2f2f" stroke="black" points="214.09,-40.82 221.42,-33.17 210.92,-34.58 214.09,-40.82"/>
</g>
<!-- PPA_MCTS&#45;&gt;PPA_PPA_Test -->
<g id="edge6" class="edge">
<title>PPA_MCTS&#45;&gt;PPA_PPA_Test</title><style>.edge>path:hover{stroke-width:8}</style>
<path fill="none" stroke="black" d="M109.69,-75.23C111.95,-66.52 114.76,-55.69 117.3,-45.88"/>
<polygon fill="#bc2f2f" stroke="black" points="120.71,-46.7 119.83,-36.14 113.93,-44.94 120.71,-46.7"/>
</g>
<!-- PPA_State -->
<g id="node6" class="node">
<title>PPA_State</title><style>.edge>path:hover{stroke-width:8}</style>
<ellipse fill="#a13535" stroke="black" cx="102.28" cy="-171.64" rx="36.49" ry="18"/>
<text text-anchor="middle" x="102.28" y="-169.14" font-family="Helvetica,sans-Serif" font-size="10.00" fill="#ffffff">PPA.State</text>
</g>
<!-- PPA_State&#45;&gt;PPA_MCTS -->
<g id="edge7" class="edge">
<title>PPA_State&#45;&gt;PPA_MCTS</title><style>.edge>path:hover{stroke-width:8}</style>
<path fill="none" stroke="black" d="M102.96,-153.3C103.33,-143.85 103.8,-131.95 104.22,-121.31"/>
<polygon fill="#a13535" stroke="black" points="107.72,-121.35 104.61,-111.22 100.72,-121.08 107.72,-121.35"/>
</g>
<!-- PPA_StateActionQN&#45;&gt;PPA_PPA_Learn -->
<g id="edge8" class="edge">
<title>PPA_StateActionQN&#45;&gt;PPA_PPA_Learn</title><style>.edge>path:hover{stroke-width:8}</style>
<path fill="none" stroke="black" d="M256.49,-71.82C255.42,-63.97 254.18,-54.86 253.03,-46.45"/>
<polygon fill="#c43131" stroke="black" points="256.47,-45.74 251.64,-36.31 249.53,-46.69 256.47,-45.74"/>
</g>
<!-- PPA_StateActionQN&#45;&gt;PPA_PPA_Test -->
<g id="edge9" class="edge">
<title>PPA_StateActionQN&#45;&gt;PPA_PPA_Test</title><style>.edge>path:hover{stroke-width:8}</style>
<path fill="none" stroke="black" d="M227.97,-75.23C207.48,-64.12 180.67,-49.58 159.45,-38.07"/>
<polygon fill="#c43131" stroke="black" points="160.89,-34.87 150.43,-33.18 157.55,-41.03 160.89,-34.87"/>
</g>
<!-- PPA_global_constants -->
<g id="node8" class="node">
<title>PPA_global_constants</title><style>.edge>path:hover{stroke-width:8}</style>
<ellipse fill="#f31616" stroke="black" cx="212.28" cy="-250.07" rx="63.78" ry="21.43"/>
<text text-anchor="middle" x="212.28" y="-253.07" font-family="Helvetica,sans-Serif" font-size="10.00" fill="#ffffff">PPA.</text>
<text text-anchor="middle" x="212.28" y="-242.07" font-family="Helvetica,sans-Serif" font-size="10.00" fill="#ffffff">global_constants</text>
</g>
<!-- PPA_global_constants&#45;&gt;PPA_Discretizers -->
<g id="edge10" class="edge">
<title>PPA_global_constants&#45;&gt;PPA_Discretizers</title><style>.edge>path:hover{stroke-width:8}</style>
<path fill="none" stroke="black" d="M245.72,-231.91C268.14,-220.41 297.78,-205.21 321.42,-193.08"/>
<polygon fill="#f31616" stroke="black" points="323.19,-196.11 330.49,-188.43 320,-189.88 323.19,-196.11"/>
</g>
<!-- PPA_global_constants&#45;&gt;PPA_LocalState -->
<g id="edge11" class="edge">
<title>PPA_global_constants&#45;&gt;PPA_LocalState</title><style>.edge>path:hover{stroke-width:8}</style>
<path fill="none" stroke="black" d="M220.69,-228.99C224.55,-219.76 229.18,-208.71 233.31,-198.84"/>
<polygon fill="#f31616" stroke="black" points="236.59,-200.06 237.23,-189.49 230.14,-197.36 236.59,-200.06"/>
</g>
<!-- PPA_global_constants&#45;&gt;PPA_PPA_Learn -->
<g id="edge12" class="edge">
<title>PPA_global_constants&#45;&gt;PPA_PPA_Learn</title><style>.edge>path:hover{stroke-width:8}</style>
<path fill="none" stroke="black" d="M346.28,-92.21C344.89,-64.65 319.6,-46.14 295.2,-34.63"/>
<polygon fill="#f31616" stroke="black" points="296.5,-31.38 285.94,-30.56 293.68,-37.79 296.5,-31.38"/>
<path fill="none" stroke="black" d="M166.28,-170.64C147.25,-85.84 350.65,-181.02 346.28,-94.21"/>
</g>
<!-- PPA_global_constants&#45;&gt;PPA_PPA_Test -->
<g id="edge13" class="edge">
<title>PPA_global_constants&#45;&gt;PPA_PPA_Test</title><style>.edge>path:hover{stroke-width:8}</style>
<path fill="none" stroke="black" d="M166.28,-170.64C148.5,-91.39 -4.2,-175.31 0.28,-94.21"/>
<path fill="none" stroke="black" d="M195.67,-229.55C184.53,-214.97 171.06,-193.95 166.28,-172.64"/>
</g>
<!-- PPA_global_constants&#45;&gt;PPA_State -->
<g id="edge14" class="edge">
<title>PPA_global_constants&#45;&gt;PPA_State</title><style>.edge>path:hover{stroke-width:8}</style>
<path fill="none" stroke="black" d="M185.65,-230.57C169.08,-219.05 147.78,-204.26 130.86,-192.5"/>
<polygon fill="#f31616" stroke="black" points="132.67,-189.49 122.46,-186.66 128.67,-195.24 132.67,-189.49"/>
</g>
<!-- numpy -->
<g id="node9" class="node">
<title>numpy</title><style>.edge>path:hover{stroke-width:8}</style>
<ellipse fill="#7ae90c" stroke="black" cx="321.28" cy="-403.71" rx="27.16" ry="18"/>
<text text-anchor="middle" x="321.28" y="-401.21" font-family="Helvetica,sans-Serif" font-size="10.00" fill="#000000">numpy</text>
</g>
<!-- numpy&#45;&gt;PPA_Discretizers -->
<g id="edge15" class="edge">
<title>numpy&#45;&gt;PPA_Discretizers</title><style>.edge>path:hover{stroke-width:8}</style>
<path fill="none" stroke="black" d="M361.28,-249.07C356.45,-234.52 355.98,-217.53 356.92,-203.27"/>
<polygon fill="#7ae90c" stroke="black" points="360.43,-203.26 357.86,-192.99 353.46,-202.62 360.43,-203.26"/>
</g>
<!-- numpy&#45;&gt;PPA_LocalState -->
<g id="edge16" class="edge">
<title>numpy&#45;&gt;PPA_LocalState</title><style>.edge>path:hover{stroke-width:8}</style>
<path fill="none" stroke="black" d="M331.66,-386.58C348.27,-358.65 377.4,-299.65 361.28,-251.07"/>
<path fill="none" stroke="black" d="M361.28,-249.07C355.97,-231.18 314.8,-207.19 282.78,-190.9"/>
<polygon fill="#7ae90c" stroke="black" points="284.12,-187.65 273.61,-186.31 280.99,-193.92 284.12,-187.65"/>
</g>
<!-- numpy&#45;&gt;PPA_State -->
<g id="edge17" class="edge">
<title>numpy&#45;&gt;PPA_State</title><style>.edge>path:hover{stroke-width:8}</style>
<path fill="none" stroke="black" d="M310.5,-387.08C299.83,-371.91 282.73,-348.47 266.28,-329.49"/>
</g>
<!-- sklearn -->
<g id="node12" class="node">
<title>sklearn</title><style>.edge>path:hover{stroke-width:8}</style>
<ellipse fill="#7a3db8" stroke="black" cx="417.28" cy="-328.49" rx="28.01" ry="18"/>
<text text-anchor="middle" x="417.28" y="-325.99" font-family="Helvetica,sans-Serif" font-size="10.00" fill="#ffffff">sklearn</text>
</g>
<!-- numpy&#45;&gt;sklearn -->
<g id="edge18" class="edge">
<title>numpy&#45;&gt;sklearn</title><style>.edge>path:hover{stroke-width:8}</style>
<path fill="none" stroke="black" d="M338.44,-389.62C353.23,-378.34 374.79,-361.9 391.63,-349.06"/>
<polygon fill="#7ae90c" stroke="black" points="394.11,-351.56 399.94,-342.72 389.87,-346 394.11,-351.56"/>
</g>
<!-- numpy_linalg -->
<g id="node10" class="node">
<title>numpy_linalg</title><style>.edge>path:hover{stroke-width:8}</style>
<ellipse fill="#80cc33" stroke="black" cx="293.28" cy="-475.71" rx="41.41" ry="18"/>
<text text-anchor="middle" x="293.28" y="-473.21" font-family="Helvetica,sans-Serif" font-size="10.00" fill="#000000">numpy.linalg</text>
</g>
<!-- numpy_linalg&#45;&gt;PPA_LocalState -->
<g id="edge19" class="edge">
<title>numpy_linalg&#45;&gt;PPA_LocalState</title><style>.edge>path:hover{stroke-width:8}</style>
<path fill="none" stroke="black" d="M266.28,-402.71C264.92,-378.38 276.38,-373.75 280.28,-349.71 288.9,-296.64 301.94,-279.96 285.28,-228.85 281.46,-217.13 274.16,-205.81 266.77,-196.45"/>
<polygon fill="#80cc33" stroke="black" points="269.44,-194.18 260.34,-188.76 264.07,-198.67 269.44,-194.18"/>
</g>
<!-- numpy_linalg&#45;&gt;PPA_State -->
<g id="edge20" class="edge">
<title>numpy_linalg&#45;&gt;PPA_State</title><style>.edge>path:hover{stroke-width:8}</style>
<path fill="none" stroke="black" d="M266.28,-327.49C225.85,-280.85 181.65,-316.17 139.28,-271.28 120.62,-251.5 111.15,-221.43 106.5,-199.69"/>
<polygon fill="#80cc33" stroke="black" points="109.91,-198.92 104.58,-189.77 103.04,-200.25 109.91,-198.92"/>
<path fill="none" stroke="black" d="M284.12,-458.07C277.2,-444.26 268.52,-423.85 266.28,-404.71"/>
<path fill="none" stroke="black" d="M266.28,-402.71C262.5,-370.39 287.34,-354.3 266.28,-329.49"/>
</g>
<!-- numpy_linalg&#45;&gt;numpy -->
<g id="edge21" class="edge">
<title>numpy_linalg&#45;&gt;numpy</title><style>.edge>path:hover{stroke-width:8}</style>
<path fill="none" stroke="black" d="M300.06,-457.76C303.29,-449.68 307.23,-439.83 310.84,-430.82"/>
<polygon fill="#80cc33" stroke="black" points="314.1,-432.08 314.56,-421.49 307.6,-429.48 314.1,-432.08"/>
</g>
<!-- pandas -->
<g id="node11" class="node">
<title>pandas</title><style>.edge>path:hover{stroke-width:8}</style>
<ellipse fill="#26d9d9" stroke="black" cx="38.28" cy="-328.49" rx="28.01" ry="18"/>
<text text-anchor="middle" x="38.28" y="-325.99" font-family="Helvetica,sans-Serif" font-size="10.00" fill="#000000">pandas</text>
</g>
<!-- pandas&#45;&gt;PPA_PPA_Learn -->
<g id="edge22" class="edge">
<title>pandas&#45;&gt;PPA_PPA_Learn</title><style>.edge>path:hover{stroke-width:8}</style>
<path fill="none" stroke="black" d="M38.28,-170.64C32.99,-126.31 26.98,-104.79 57.28,-72 59.78,-69.3 143.9,-46.74 199.95,-31.94"/>
<polygon fill="#26d9d9" stroke="black" points="200.94,-35.3 209.72,-29.36 199.16,-28.53 200.94,-35.3"/>
</g>
<!-- pandas&#45;&gt;PPA_PPA_Test -->
<g id="edge23" class="edge">
<title>pandas&#45;&gt;PPA_PPA_Test</title><style>.edge>path:hover{stroke-width:8}</style>
<path fill="none" stroke="black" d="M38.28,-170.64C33.78,-132.97 -1.81,-132.09 0.28,-94.21"/>
<path fill="none" stroke="black" d="M38.28,-249.07C44.82,-215.73 42.31,-206.37 38.28,-172.64"/>
<path fill="none" stroke="black" d="M36.41,-310.31C35.15,-294.7 34.35,-271.12 38.28,-251.07"/>
<path fill="none" stroke="black" d="M0.28,-92.21C2.2,-57.38 38.88,-38.76 71.85,-29.04"/>
<polygon fill="#26d9d9" stroke="black" points="73.19,-32.3 81.92,-26.3 71.35,-25.55 73.19,-32.3"/>
</g>
<!-- pandas&#45;&gt;PPA_State -->
<g id="edge24" class="edge">
<title>pandas&#45;&gt;PPA_State</title><style>.edge>path:hover{stroke-width:8}</style>
<path fill="none" stroke="black" d="M38.28,-249.07C42.65,-226.79 59.34,-207.29 74.57,-193.55"/>
<polygon fill="#26d9d9" stroke="black" points="77.01,-196.07 82.34,-186.91 72.46,-190.75 77.01,-196.07"/>
</g>
<!-- sklearn&#45;&gt;PPA_Discretizers -->
<g id="edge25" class="edge">
<title>sklearn&#45;&gt;PPA_Discretizers</title><style>.edge>path:hover{stroke-width:8}</style>
<path fill="none" stroke="black" d="M436.9,-315.38C467.03,-296.42 520.97,-260.87 518.28,-251.07"/>
<path fill="none" stroke="black" d="M518.28,-249.07C506.71,-206.89 458.32,-187.98 418.28,-179.5"/>
<polygon fill="#7a3db8" stroke="black" points="418.79,-176.04 408.31,-177.57 417.46,-182.91 418.79,-176.04"/>
</g>
<!-- sklearn_preprocessing -->
<g id="node13" class="node">
<title>sklearn_preprocessing</title><style>.edge>path:hover{stroke-width:8}</style>
<ellipse fill="#8553b6" stroke="black" cx="518.28" cy="-328.49" rx="54.39" ry="21.43"/>
<text text-anchor="middle" x="518.28" y="-331.49" font-family="Helvetica,sans-Serif" font-size="10.00" fill="#ffffff">sklearn.</text>
<text text-anchor="middle" x="518.28" y="-320.49" font-family="Helvetica,sans-Serif" font-size="10.00" fill="#ffffff">preprocessing</text>
</g>
<!-- sklearn_preprocessing&#45;&gt;PPA_Discretizers -->
<g id="edge26" class="edge">
<title>sklearn_preprocessing&#45;&gt;PPA_Discretizers</title><style>.edge>path:hover{stroke-width:8}</style>
<path fill="none" stroke="black" d="M521.18,-306.99C522.7,-291.37 523.33,-269.49 518.28,-251.07"/>
</g>
</g>
</svg>
